<svg width="22" height="24" viewBox="0 0 22 24" fill="none" xmlns="http://www.w3.org/2000/svg">
<g clip-path="url(#clip0_226_1302)">
<path d="M4.45372 7L8.67979 2.298C8.85868 2.1 9.09332 2 9.32795 2C9.87902 2 10.2449 2.505 10.2449 3.029C10.2449 3.279 10.1622 3.533 9.97611 3.74L7.04546 7H4.45372ZM15.2423 7H17.834L13.608 2.298C13.4291 2.1 13.1944 2 12.9598 2C12.4087 2 12.0428 2.505 12.0428 3.029C12.0428 3.279 12.1256 3.533 12.3116 3.74L15.2423 7ZM0.356201 9V11H0.934241C1.41429 11 1.85209 11.304 2.06335 11.784L5.75004 22H16.5377L20.2253 11.786C20.4348 11.305 20.8744 11 21.3544 11H21.9315V9H0.356201Z" fill="black"/>
</g>
<defs>
<clipPath id="clip0_226_1302">
<rect width="21.5753" height="24" fill="white" transform="translate(0.356201)"/>
</clipPath>
</defs>
</svg>
