<svg width="26" height="24" viewBox="0 0 26 24" fill="none" xmlns="http://www.w3.org/2000/svg">
<path d="M9.91605 7L9.70902 7.47905C9.37479 8.25243 9.29078 9.10637 9.46817 9.92729C9.73883 11.1799 10.7649 12.1473 12.0614 12.3723L12.1756 12.3921C12.5868 12.4635 13.0077 12.4635 13.4188 12.3921L13.533 12.3723C14.8295 12.1473 15.8556 11.1799 16.1263 9.92729C16.3036 9.10637 16.2196 8.25243 15.8854 7.47905L15.6784 7" stroke="#302F3C" stroke-width="1.5" stroke-linecap="round"/>
<path d="M21.2562 15.143C20.6695 17.6504 18.664 19.6204 16.0923 20.2251C13.931 20.7334 11.6634 20.7334 9.5021 20.2251C6.93037 19.6204 4.92487 17.6504 4.33817 15.143C3.81397 12.9026 3.94146 10.5648 4.70638 8.39084L4.82002 8.06787C5.66168 5.67585 7.76425 3.91013 10.3216 3.44766L11.0219 3.32102C12.1954 3.10881 13.3991 3.10881 14.5725 3.32102L15.2728 3.44766C17.8302 3.91013 19.9328 5.67586 20.7744 8.06789L20.888 8.39084C21.653 10.5648 21.7804 12.9026 21.2562 15.143Z" stroke="#302F3C" stroke-width="1.5"/>
</svg>
