<svg width="13" height="13" viewBox="0 0 13 13" fill="none" xmlns="http://www.w3.org/2000/svg">
<g clip-path="url(#clip0_67_568)">
<path d="M8.98352 4.65921C8.738 4.38619 8.3563 4.01768 8.19392 4.84976C8.13869 5.13267 8.00968 5.35076 7.89911 5.52635C7.77994 4.91201 7.4214 4.27612 7.08356 3.84738C6.95714 3.68698 6.50858 3.04931 6.42241 1.98253C6.40954 1.82332 6.22387 1.74855 6.10774 1.85594C4.99791 2.88213 4.38874 4.29349 4.36612 5.88239C4.36612 5.88239 3.90398 5.48562 3.65292 4.74748C3.58531 4.5487 3.32368 4.51078 3.21017 4.68654C3.18838 4.72029 3.16818 4.75409 3.14996 4.7869C2.29368 6.32909 1.88177 8.20186 2.26257 9.9442C2.89926 12.8621 7.11092 13.6779 9.34059 11.8439C11.5221 10.0496 10.8286 6.71004 8.98352 4.65921Z" fill="#ED694A"/>
<path d="M2.8552 10.1274C2.47882 8.36646 2.87722 6.47545 3.71339 4.90912C3.69224 4.85716 3.6719 4.80342 3.65289 4.74755C3.58529 4.54877 3.32366 4.51085 3.21015 4.68661C3.18836 4.72036 3.16818 4.75415 3.14996 4.78697C2.29368 6.32915 1.88177 8.20193 2.26257 9.94427C2.55298 11.2752 3.58724 12.1685 4.83787 12.5728C3.86224 12.0914 3.09821 11.2662 2.8552 10.1274Z" fill="#D8553A"/>
<path d="M4.96178 5.85317C5.00801 4.41113 5.52008 3.11808 6.43658 2.12476C6.43027 2.07005 6.4256 2.02114 6.42259 1.98401C6.40945 1.82344 6.23057 1.74291 6.11494 1.84937C5.04301 2.83651 4.38966 4.23359 4.36621 5.88237L4.56684 6.04107C4.66564 6.11923 4.79952 6.11583 4.89388 6.04423C4.95019 5.99562 4.95826 5.92226 4.96178 5.85317Z" fill="#D8553A"/>
<path d="M8.31012 6.79223C8.1288 6.59058 7.84685 6.31837 7.72692 6.93297C7.68615 7.14192 7.59082 7.30303 7.5092 7.43273C7.42119 6.97896 7.15634 6.50927 6.90682 6.19261C6.81344 6.07413 6.48214 5.60315 6.41847 4.81516C6.40897 4.69755 6.27185 4.64236 6.18607 4.72167C5.36632 5.47962 4.91636 6.52211 4.89968 7.69568C4.89968 7.69568 4.55832 7.40261 4.3729 6.85741C4.32297 6.7106 4.12971 6.68259 4.04588 6.81241C4.0298 6.83733 4.01486 6.86231 4.0014 6.88654C3.36892 8.02563 3.06468 9.40889 3.34593 10.6958C3.81622 12.8511 6.92702 13.4536 8.57391 12.099C10.1852 10.7737 9.67299 8.30704 8.31012 6.79223Z" fill="#F4A32C"/>
<path d="M3.93249 10.8649C3.68347 9.60688 3.94139 8.257 4.48823 7.13293C4.44656 7.04982 4.40707 6.95795 4.37288 6.85745C4.32295 6.71063 4.12969 6.6826 4.04586 6.81242C4.02978 6.83734 4.01484 6.86232 4.00138 6.88658C3.36892 8.02567 3.0647 9.40893 3.34591 10.6959C3.56465 11.6982 4.35461 12.3645 5.30273 12.6545C4.6291 12.3104 4.09871 11.7058 3.93249 10.8649Z" fill="#E89528"/>
<path d="M7.69587 8.7396C7.57313 8.6031 7.38224 8.41881 7.30106 8.83488C7.27347 8.97634 7.20893 9.08538 7.15365 9.17317C7.09406 8.86598 6.91481 8.54805 6.74587 8.33369C6.68268 8.25348 6.4584 7.93466 6.41528 7.40125C6.40883 7.32163 6.31603 7.28425 6.25796 7.33797C5.70304 7.85106 5.39845 8.55677 5.38715 9.35118C5.38715 9.35118 5.15606 9.15278 5.03056 8.78373C4.99676 8.68436 4.86595 8.6654 4.8092 8.75327C4.7983 8.77012 4.78822 8.78704 4.77908 8.80345C4.35095 9.57454 4.14499 10.5109 4.33538 11.3821C4.65372 12.8411 6.75956 13.249 7.87438 12.332C8.25615 12.0179 8.49285 11.5755 8.54085 11.086C8.61331 10.3447 8.33321 9.448 7.69587 8.7396Z" fill="#F4D44E"/>
<path d="M7.12549 10.5467C7.0571 10.4706 6.95077 10.3679 6.90553 10.5997C6.89016 10.6785 6.85422 10.7393 6.82341 10.7882C6.7902 10.6171 6.69034 10.4399 6.59623 10.3205C6.56102 10.2758 6.43605 10.0982 6.41203 9.80101C6.40844 9.75664 6.35671 9.73586 6.32438 9.76574C6.01524 10.0516 5.84552 10.4448 5.83924 10.8874C5.83924 10.8874 5.71049 10.7768 5.64057 10.5712C5.62172 10.5158 5.54885 10.5053 5.51725 10.5542C5.51118 10.5636 5.50556 10.5731 5.5005 10.5822C5.26198 11.0118 5.14723 11.5335 5.2533 12.0189C5.49487 13.1258 7.47485 13.0923 7.5963 11.8539C7.63661 11.4409 7.48056 10.9413 7.12549 10.5467Z" fill="#EAE9E8"/>
<path d="M5.71302 12.2385C5.60695 11.8044 5.7217 11.3377 5.96022 10.9534C5.96529 10.9452 5.97092 10.9368 5.97697 10.9284C6.00859 10.8846 6.08146 10.894 6.10029 10.9436C6.17021 11.1275 6.29896 11.2264 6.29896 11.2264C6.30413 10.9011 6.41983 10.6058 6.63233 10.3689C6.58481 10.3019 6.43943 10.1402 6.41203 9.80104C6.40844 9.75667 6.35671 9.73588 6.32438 9.76576C6.01524 10.0516 5.84552 10.4448 5.83924 10.8874C5.83924 10.8874 5.71049 10.7769 5.64057 10.5713C5.62174 10.5159 5.54885 10.5053 5.51725 10.5543C5.51118 10.5637 5.50556 10.5731 5.5005 10.5823C5.26198 11.0118 5.14723 11.5335 5.2533 12.0189C5.35146 12.4688 5.75474 12.7392 6.20059 12.8044C5.96008 12.6841 5.77524 12.4936 5.71302 12.2385Z" fill="#F7E7A1"/>
<path d="M4.63695 2.41475C5.13455 2.00251 5.13345 1.23125 4.63695 0.819946C4.13936 1.23217 4.14044 2.00345 4.63695 2.41475Z" fill="#D8553A"/>
<path d="M10.6011 5.72334C11.0987 5.3111 11.0976 4.53984 10.6011 4.12854C10.3737 4.31693 10.1046 5.31204 10.6011 5.72334Z" fill="#D8553A"/>
<path d="M1.78794 6.03726C2.14655 5.74015 2.14577 5.18433 1.78794 4.88787C1.62404 5.02364 1.43011 5.74083 1.78794 6.03726Z" fill="#D8553A"/>
<path d="M7.99888 3.56414C8.3575 3.26703 8.35672 2.71121 7.99888 2.41475C7.64027 2.71184 7.64107 3.26771 7.99888 3.56414Z" fill="#D8553A"/>
<path d="M5.35722 7.50723C5.43957 6.51694 5.81084 5.63642 6.43424 4.96515C6.42793 4.91649 6.42262 4.86655 6.41847 4.8152C6.40897 4.69759 6.27185 4.64239 6.18607 4.7217C5.53649 5.32231 5.11959 6.10175 4.96602 6.98335L4.96579 6.98328C4.9544 7.04867 4.94027 7.14392 4.93134 7.21876C4.93137 7.21883 4.93139 7.21887 4.93144 7.21894C4.91277 7.37513 4.90196 7.53413 4.89966 7.69573C4.91701 7.69918 5.30975 7.90479 5.35722 7.50723Z" fill="#E89528"/>
<path d="M4.90923 11.5891C4.73999 10.7752 4.88412 9.9073 5.21897 9.15531C5.1541 9.06266 5.08312 8.93821 5.03058 8.78371C4.99676 8.68433 4.86597 8.66537 4.8092 8.75324C4.79832 8.77009 4.78819 8.78701 4.77908 8.80342C4.35095 9.57451 4.14499 10.5109 4.33538 11.3821C4.48448 12.0653 5.02561 12.5181 5.67338 12.7121C5.29633 12.4572 5.01112 12.0798 4.90923 11.5891Z" fill="#E8C842"/>
<path d="M5.99806 8.99554C6.05416 8.58714 6.21816 8.13716 6.47631 7.76097C6.44819 7.65475 6.42608 7.53473 6.41529 7.40125C6.40884 7.32163 6.31602 7.28425 6.25796 7.33797C5.91221 7.65768 5.66404 8.05232 5.52306 8.49644L5.52269 8.49634C5.50051 8.56612 5.46915 8.68171 5.45014 8.77295C5.4503 8.7729 5.45046 8.7729 5.45062 8.77283C5.41169 8.95902 5.39004 9.15224 5.38721 9.35115C5.69766 9.39062 5.95448 9.31232 5.99806 8.99554Z" fill="#E8C842"/>
</g>
<defs>
<clipPath id="clip0_67_568">
<rect width="11.7813" height="12" fill="white" transform="translate(0.38916 0.819946)"/>
</clipPath>
</defs>
</svg>
