<svg width="26" height="24" viewBox="0 0 26 24" fill="none" xmlns="http://www.w3.org/2000/svg">
<path d="M10.6583 4.58646C11.5619 2.47118 14.5828 2.47118 15.4865 4.58646L16.1159 6.05983C16.4859 6.9261 17.2984 7.52663 18.2407 7.63041L19.9971 7.82385C22.2152 8.06813 23.1314 10.7755 21.5114 12.2988L20.0201 13.7012C19.3645 14.3177 19.0747 15.2258 19.2534 16.1045L19.6134 17.8758C20.0692 20.118 17.5975 21.8109 15.6467 20.5927L14.4688 19.8572C13.6153 19.3242 12.5295 19.3242 11.676 19.8572L10.4981 20.5927C8.54726 21.8109 6.07561 20.118 6.53137 17.8758L6.89143 16.1045C7.07004 15.2258 6.78033 14.3177 6.12466 13.7012L4.63339 12.2988C3.01342 10.7755 3.92956 8.06813 6.14767 7.82385L7.90407 7.63041C8.8464 7.52663 9.65887 6.9261 10.0289 6.05983L10.6583 4.58646Z" stroke="#302F3C" stroke-width="1.5" stroke-linecap="round" stroke-linejoin="round"/>
</svg>
