<svg width="25" height="24" viewBox="0 0 25 24" fill="none" xmlns="http://www.w3.org/2000/svg">
<path d="M3.45002 8.95043C4.1204 6.17301 6.35189 4.00437 9.20982 3.35288C11.2738 2.88237 13.4218 2.88237 15.4857 3.35288C18.3437 4.00437 20.5752 6.17301 21.2455 8.95044C21.7297 10.9563 21.7297 13.0437 21.2455 15.0496C20.5752 17.827 18.3437 19.9956 15.4857 20.6471C13.4218 21.1176 11.2738 21.1176 9.20983 20.6471C6.3519 19.9956 4.1204 17.827 3.45002 15.0496C2.96588 13.0437 2.96588 10.9563 3.45002 8.95043Z" stroke="black" stroke-width="1.5"/>
<path d="M10.477 11.2959C10.6862 10.7877 11.1005 10.385 11.6235 10.1817L13.7202 9.3666C14.5602 9.04008 15.3938 9.85016 15.0578 10.6665L14.2191 12.7042C14.0099 13.2124 13.5955 13.6151 13.0726 13.8184L10.9758 14.6334C10.1359 14.96 9.30229 14.1499 9.63828 13.3336L10.477 11.2959Z" stroke="black" stroke-width="1.5" stroke-linecap="round" stroke-linejoin="round"/>
</svg>
