<svg width="23" height="20" viewBox="0 0 23 20" fill="none" xmlns="http://www.w3.org/2000/svg">
<path d="M11.5687 19.7777C10.5023 19.7777 4.45024 14.6094 2.05074 11.4073C1.70415 11.014 1.38421 10.5084 1.09094 9.94665L1.01096 9.77812C0.957637 9.63768 0.877654 9.49723 0.824332 9.30061C0.77101 9.16017 0.717688 8.99164 0.664366 8.82311C0.477738 8.14898 0.371094 7.53103 0.371094 6.94117C0.371094 3.28965 3.19717 0.312256 6.66311 0.312256C8.58271 0.312256 10.3957 1.23918 11.5687 2.81214C12.7418 1.23918 14.5548 0.312256 16.4744 0.312256C19.9403 0.312256 22.7664 3.28965 22.7664 6.94117C22.7664 7.58721 22.6331 8.17707 22.4731 8.79502C22.4465 8.99164 22.3665 9.16017 22.3132 9.3287L22.2865 9.38488C22.2598 9.44106 22.2332 9.49723 22.2065 9.55341C22.1799 9.60959 22.1532 9.69386 22.0999 9.77812V9.80621L22.0466 9.94665C21.7533 10.5365 21.4333 11.014 21.0868 11.4353C18.6873 14.6094 12.6352 19.7777 11.5687 19.7777ZM2.31735 9.38488C2.5573 9.8343 2.79725 10.1995 3.0372 10.4803L3.06386 10.5365C5.51668 13.7667 10.5023 17.7553 11.5687 18.3171C12.6352 17.7272 17.6208 13.7667 20.047 10.5084L20.0736 10.4522C20.3402 10.1714 20.5802 9.80621 20.7935 9.35679V9.30061L20.9001 9.13208C20.9268 9.0759 20.9534 9.01973 20.9801 8.93546C21.0068 8.87928 21.0334 8.79502 21.0601 8.71075C21.0868 8.5984 21.1401 8.51413 21.1401 8.42987V8.40178C21.2734 7.86809 21.38 7.39059 21.38 6.88499C21.38 3.99186 19.1672 1.66051 16.4211 1.66051C14.6081 1.66051 12.9818 2.6717 12.102 4.35702L11.5687 5.53674L10.9822 4.44128C10.1024 2.75597 8.47606 1.74478 6.66311 1.74478C3.91702 1.71669 1.70415 4.04804 1.70415 6.94117C1.70415 7.39059 1.78413 7.89618 1.9441 8.40178L1.97076 8.48604C1.99742 8.57031 2.02408 8.68266 2.0774 8.79502L2.10406 8.82311C2.13073 8.93546 2.18405 9.04782 2.26403 9.16017L2.37067 9.3287V9.38488H2.31735Z" fill="#FD6B4B"/>
<path d="M16.3673 1.07422L11.4218 3.64589V5.57464L10.8036 3.96734L10.1854 2.36005L6.47627 1.07422L2.76714 3.00297L1.53076 6.86047L3.38533 12.0038L11.4218 18.433L15.7491 15.8613L21.3128 9.43213L21.931 6.86047L20.0764 2.36005L16.3673 1.07422Z" fill="#FD6B4B" stroke="#FD6B4B" stroke-width="0.2"/>
</svg>
