<svg width="19" height="16" viewBox="0 0 19 16" fill="none" xmlns="http://www.w3.org/2000/svg">
<path d="M9.12006 15.5461C8.2575 15.5461 3.3625 11.5267 1.42176 9.03636C1.14143 8.73054 0.882659 8.33733 0.645457 7.90044L0.580765 7.76937C0.537637 7.66015 0.472946 7.55093 0.429818 7.39801C0.38669 7.28879 0.343563 7.15772 0.300435 7.02665C0.149488 6.50238 0.0632324 6.0218 0.0632324 5.56306C0.0632324 2.72325 2.349 0.407715 5.15231 0.407715C6.7049 0.407715 8.17125 1.12859 9.12006 2.35189C10.0689 1.12859 11.5352 0.407715 13.0878 0.407715C15.8911 0.407715 18.1769 2.72325 18.1769 5.56306C18.1769 6.06549 18.0691 6.52423 17.9397 7.00481C17.9181 7.15772 17.8534 7.28879 17.8103 7.41986L17.7887 7.46355C17.7672 7.50724 17.7456 7.55093 17.724 7.59462C17.7025 7.6383 17.6809 7.70384 17.6378 7.76937V7.79122L17.5947 7.90044C17.3575 8.35918 17.0987 8.73054 16.8184 9.05821C14.8776 11.5267 9.98261 15.5461 9.12006 15.5461ZM1.63739 7.46355C1.83147 7.81306 2.02554 8.09704 2.21962 8.31549L2.24118 8.35918C4.22506 10.8713 8.2575 13.9733 9.12006 14.4102C9.98261 13.9514 14.0151 10.8713 15.9774 8.33733L15.9989 8.29365C16.2146 8.0752 16.4086 7.79122 16.5812 7.4417V7.39801L16.6674 7.26694C16.689 7.22326 16.7105 7.17957 16.7321 7.11403C16.7537 7.07034 16.7752 7.00481 16.7968 6.93927C16.8184 6.8519 16.8615 6.78636 16.8615 6.72083V6.69898C16.9693 6.28393 17.0556 5.91257 17.0556 5.51937C17.0556 3.26937 15.2658 1.45626 13.0447 1.45626C11.5783 1.45626 10.2629 2.24267 9.55133 3.55335L9.12006 4.47083L8.64565 3.61888C7.93404 2.3082 6.61865 1.52179 5.15231 1.52179C2.93123 1.49995 1.14143 3.31306 1.14143 5.56306C1.14143 5.91257 1.20612 6.30578 1.3355 6.69898L1.35706 6.76452C1.37863 6.83005 1.40019 6.91743 1.44332 7.00481L1.46488 7.02665C1.48645 7.11403 1.52958 7.20141 1.59427 7.28879L1.68052 7.41986V7.46355H1.63739Z" fill="#FE7B5F"/>
</svg>
