<svg width="25" height="24" viewBox="0 0 25 24" fill="none" xmlns="http://www.w3.org/2000/svg">
<path d="M5.17383 19.1115C5.17383 16.6984 6.87115 14.643 9.17787 14.2627L9.38565 14.2284C11.2327 13.9239 13.1149 13.9239 14.962 14.2284L15.1698 14.2627C17.4765 14.643 19.1738 16.6984 19.1738 19.1115C19.1738 20.1545 18.3553 21 17.3457 21H7.00196C5.99231 21 5.17383 20.1545 5.17383 19.1115Z" stroke="#302F3C" stroke-width="1.5"/>
<path d="M16.2572 6.9375C16.2572 9.11212 14.429 10.875 12.1738 10.875C9.91869 10.875 8.09052 9.11212 8.09052 6.9375C8.09052 4.76288 9.91869 3 12.1738 3C14.429 3 16.2572 4.76288 16.2572 6.9375Z" stroke="#302F3C" stroke-width="1.5"/>
</svg>
