<svg width="20" height="19" viewBox="0 0 20 19" fill="none" xmlns="http://www.w3.org/2000/svg">
<g clip-path="url(#clip0_1118_148)">
<path fill-rule="evenodd" clip-rule="evenodd" d="M8.83364 0.762553C9.5317 0.0645009 10.6635 0.0645008 11.3615 0.762551L12.2721 1.67318C12.7191 2.12013 13.3253 2.37123 13.9574 2.37123H15.4237C16.4109 2.37123 17.2112 3.17151 17.2112 4.1587V5.62503C17.2112 6.25712 17.4623 6.86332 17.9092 7.31028L18.8879 8.28897C19.586 8.98702 19.586 10.1188 18.8879 10.8168L17.9092 11.7955C17.4623 12.2425 17.2112 12.8487 17.2112 13.4808V14.8027C17.2112 15.7899 16.4109 16.5901 15.4237 16.5901H14.1018C13.4697 16.5901 12.8635 16.8412 12.4166 17.2882L11.3615 18.3433C10.6635 19.0413 9.53169 19.0413 8.83365 18.3433L7.77858 17.2882C7.33163 16.8412 6.72543 16.5901 6.09334 16.5901H4.77976C3.79256 16.5901 2.99228 15.7899 2.99228 14.8027V13.4891C2.99228 12.857 2.74118 12.2508 2.29423 11.8038L1.30723 10.8168C0.609178 10.1188 0.609179 8.98702 1.30723 8.28897L2.29423 7.30197C2.74118 6.85501 2.99228 6.24881 2.99228 5.61672V4.15871C2.99228 3.17151 3.79256 2.37123 4.77975 2.37123H6.23777C6.86986 2.37123 7.47606 2.12013 7.92302 1.67318L8.83364 0.762553ZM12.0792 7.03841C11.8001 6.75922 11.3474 6.75922 11.0682 7.03841L7.26357 10.843C6.98438 11.1222 6.98438 11.5749 7.26357 11.8541C7.54277 12.1333 7.99543 12.1333 8.27462 11.8541L12.0792 8.04947C12.3584 7.77027 12.3584 7.31761 12.0792 7.03841ZM8.80153 7.45175C8.80153 8.07222 8.29855 8.5752 7.67808 8.5752C7.05762 8.5752 6.55463 8.07222 6.55463 7.45175C6.55463 6.83129 7.05762 6.3283 7.67808 6.3283C8.29855 6.3283 8.80153 6.83129 8.80153 7.45175ZM11.7626 12.661C12.3831 12.661 12.8861 12.158 12.8861 11.5376C12.8861 10.9171 12.3831 10.4141 11.7626 10.4141C11.1421 10.4141 10.6392 10.9171 10.6392 11.5376C10.6392 12.158 11.1421 12.661 11.7626 12.661Z" fill="#F88922"/>
</g>
<defs>
<clipPath id="clip0_1118_148">
<rect width="18.6278" height="18.6278" fill="white" transform="translate(0.783691 0.239014)"/>
</clipPath>
</defs>
</svg>
